<svg width="289" height="275" viewBox="0 0 289 275" fill="none" xmlns="http://www.w3.org/2000/svg">
<path d="M276.427 72.9508C276.434 73.0043 276.44 73.045 276.444 73.0448C276.44 73.045 276.434 73.0043 276.427 72.9508ZM276.41 72.7905C276.416 72.8312 276.42 72.8822 276.425 72.9306C276.42 72.8822 276.415 72.8286 276.41 72.7905ZM270.008 75.0964C269.955 75.0496 269.902 74.9977 269.842 74.9461C269.776 75.0632 269.714 75.1827 269.652 75.3048C269.714 75.1827 269.776 75.0632 269.837 74.9411C269.902 74.9977 269.955 75.0496 270.008 75.0964V75.0964ZM29.3582 115.849C29.3581 115.847 29.3597 115.847 29.3596 115.844C29.4518 115.984 29.5369 116.196 29.636 116.213C29.5354 116.196 29.4501 115.979 29.3582 115.849V115.849ZM253.081 118.483C253.563 118.72 254.188 117.948 254.706 117.711L254.704 117.714C254.186 117.948 253.561 118.72 253.081 118.483ZM271.094 155.031C271.045 154.895 271.008 154.758 270.98 154.626C271.008 154.758 271.045 154.895 271.094 155.031ZM270.978 154.619C270.898 154.215 270.916 153.808 271.101 153.409C270.916 153.808 270.898 154.215 270.978 154.619ZM268.815 152.756C268.41 153.413 268.006 154.073 267.599 154.73C268.006 154.073 268.41 153.413 268.815 152.756ZM121.693 235.678C121.689 235.683 121.686 235.683 121.681 235.689C121.582 235.677 121.484 235.672 121.385 235.668C121.487 235.672 121.59 235.676 121.693 235.678ZM223.763 7.91366C213.166 9.32561 202.534 10.4041 191.988 12.2742C183.507 13.7825 175.095 16.4152 166.494 15.9142C150.493 14.9801 134.504 15.1134 118.518 14.4777C115.869 14.3709 116.266 19.2247 112.941 17.5356C109.99 16.0361 106.122 18.6621 102.462 17.6688C100.367 17.0992 98.0642 18.4525 95.8763 18.2614C85.6879 17.3606 76.0914 19.6644 66.7725 25.3621C63.3448 27.4576 61.5467 33.449 56.7826 32.4793C55.4773 32.2106 54.9025 35.2698 56.328 37.0035C56.7876 37.5657 57.7717 37.2957 58.5626 37.3309C58.5564 37.3337 58.5502 37.3339 58.5424 37.3367C57.7507 37.7997 56.9138 38.1722 56.2011 38.8012C56.0324 38.9498 56.1454 40.0983 56.3647 40.5841C57.2197 42.4695 61.2722 43.059 57.6171 46.7485C57.1419 47.2291 58.1647 47.7064 58.7018 48.0591C60.9857 49.5525 63.2245 51.193 65.4541 52.8415C65.9077 53.174 66.1447 54.0093 65.4141 54.0946C63.3995 54.3194 62.4298 56.5026 61.045 57.7592C57.6893 60.8052 53.4495 62.1278 49.482 63.7888C44.5379 65.855 39.3893 66.0784 34.2152 65.812C33.4961 65.7743 32.5606 65.8588 32.5056 67.2274C32.4426 68.8288 33.4078 69.3591 34.3124 69.4749C36.0713 69.7006 37.8514 69.5704 39.6086 69.8395C43.1813 70.3886 45.2161 75.9957 49.1203 75.7827C49.3529 75.77 51.0872 75.6285 50.8172 77.7809C50.5918 79.5767 49.5321 79.2642 48.7521 79.5122C46.0792 80.359 46.6747 83.7654 45.9906 86.1664C47.0696 86.067 48.1465 85.9549 49.2274 85.8682C49.8934 85.8156 50.5811 85.6627 51.2234 85.8382C51.509 85.9157 51.7082 86.6908 51.9469 87.1479C51.6546 87.39 51.3623 87.6322 51.0699 87.8718C51.0481 87.8725 51.0278 87.8732 51.0059 87.8739C50.7342 87.8854 50.4593 87.897 50.1859 87.906C50.1594 87.9069 50.1313 87.9078 50.1047 87.9087L50.1393 87.9612C49.8424 87.9684 49.544 87.9783 49.2471 87.9855L49.2649 87.9568C48.54 88.1212 47.7952 88.5366 47.0936 88.4116C43.6208 87.8081 41.7349 91.3242 41.5432 94.6186C41.2828 99.0546 44.7219 96.6881 46.4409 97.6482C47.7187 98.3624 49.115 98.6434 50.4584 99.1177C49.6029 101.157 48.0742 99.7558 46.9346 100.34C46.4025 100.613 45.8921 101.021 45.341 101.144C43.6783 101.513 41.8945 100.297 40.3019 101.703C41.639 103.981 43.6771 103.707 45.4188 104.503C46.4065 104.956 47.1884 105.763 47.4015 107.154C47.4613 107.545 46.8243 108.573 46.5248 108.547C41.4789 108.141 37.2257 114.987 31.7819 111.143C30.831 110.474 29.6085 110.346 28.515 110.333C26.7941 110.313 26.4772 111.565 27.3894 113.526C29.0288 117.053 30.317 121.17 34.7399 120.659C33.1905 121.952 31.2738 120.973 31.3872 122.944C31.5169 125.218 33.3877 125.944 34.7496 126.933C35.1036 127.19 35.4162 127.563 35.7473 127.882C35.3785 128.08 35.0147 128.429 34.6384 128.447C33.3516 128.502 32.0972 127.072 30.777 128.155C32.0099 128.649 33.243 129.144 34.4759 129.638C34.9085 129.81 35.3623 129.915 35.768 130.17C36.2072 130.449 36.6041 130.865 37.0192 131.22C36.5425 131.322 36.0381 131.63 35.5928 131.499C31.7418 130.382 28.9716 133.352 26.0327 135.856C25.0637 136.68 25.5111 137.682 25.9089 138.078C27.2866 139.453 28.9741 140.168 30.5507 139.465C31.6742 138.963 30.79 138.136 30.2334 137.618C32.9833 134.934 34.9326 138.754 37.2486 139.559C37.3688 139.598 37.5139 140.682 37.3957 140.795C35.4757 142.66 34.5302 139.308 32.9863 139.058C32.8637 139.039 32.7275 139.225 32.5976 139.316L32.5678 139.363C32.5366 139.412 32.4802 139.504 32.4802 139.504C31.8994 142.049 33.277 141.759 34.3563 142.147C35.0052 142.382 36.102 143.298 36.0582 143.678C35.9017 145.05 34.9212 145.005 34.0839 144.89C31.5371 144.532 28.8601 144.733 26.4724 143.649C21.8668 141.557 23.3274 144.736 23.5458 148.423C23.6879 150.838 24.9054 149.674 25.3192 150.889C23.6546 151.488 22.0212 152.081 20.3874 152.666C17.6547 153.64 17.2996 154.444 18.4257 157.058C18.5069 157.245 18.4924 157.708 18.3942 157.811C15.9034 160.435 18.8082 159.555 19.1616 159.696C20.5247 160.249 21.9505 160.473 23.3394 160.905C23.6238 160.995 23.8533 161.458 24.1084 161.748C23.8664 161.95 23.6401 162.201 23.3824 162.355C21.704 163.34 21.9065 168.489 18.7739 166.249C18.8816 166.578 18.9239 167.054 19.1075 167.214C20.4314 168.382 21.1582 170.647 23.047 170.876C23.8933 170.978 25.0439 172.151 23.8418 173.685C22.9849 174.779 20.0589 174.589 22.938 177.583C23.1631 177.816 21.7778 178.155 21.1173 177.95C18.2607 177.065 15.4196 176.078 12.5631 175.197C11.8632 174.982 10.9156 174.558 10.602 175.813C10.424 176.534 10.6869 177.583 10.9366 178.375C11.2248 179.29 11.7171 180.089 12.122 180.936C11.3241 180.878 10.5214 180.723 9.73072 180.79C8.63742 180.88 7.55427 181.135 6.46729 181.322C7.39109 181.736 8.30208 182.283 9.24689 182.528C10.1301 182.755 10.6235 183.349 11.2026 184.311C12.574 186.588 13.7772 189.359 16.2887 189.549C16.2107 189.698 16.1328 189.846 16.0547 189.991C15.2462 190.038 13.8972 189.109 14.457 191.623C13.0688 191.449 11.6821 191.224 10.2932 191.124C9.39181 191.056 8.22666 192.193 9.12464 192.82C10.6678 193.901 10.3828 195.502 10.9268 196.969C12.7 201.754 11.9047 203.582 8.11092 203.014C8.03913 203.114 7.96579 203.213 7.89079 203.31C8.03137 204.302 8.00702 205.414 8.33719 206.274C10.4718 211.827 8.6004 220.149 14.4462 223.047C15.5607 223.601 17.0275 222.556 18.2331 222.93C23.4299 224.55 28.6778 225.723 33.8729 227.481C42.6105 230.435 51.5687 232.207 60.4862 233.834C68.145 235.232 75.8739 235.765 83.573 236.627C88.4704 237.179 93.5195 238.824 98.235 237.843C104.724 236.498 111.365 238.882 117.645 236.248C120.005 235.261 122.096 240.368 124.277 236.546C127.435 234.324 130.855 235.609 134.162 235.484C145.41 235.05 156.664 234.717 167.914 234.347C167.936 235.164 167.959 235.978 167.981 236.797C164.925 236.898 161.867 236.963 158.816 237.14C158.41 237.164 158.031 237.769 157.639 238.106C157.987 238.429 158.32 238.983 158.686 239.045C161.85 239.582 165.149 240.207 168.17 240.36C173.941 240.658 179.754 238.433 185.512 236.994C186.205 236.823 187.972 237.799 187.679 235.691C187.504 234.44 185.942 234.563 184.884 234.682C180.037 235.235 175.185 235.75 170.336 236.283C172.465 235.201 174.153 232.269 176.695 233.523L176.745 233.581C176.719 233.551 176.695 233.523 176.695 233.526C176.532 233.674 176.37 233.825 176.208 233.979C176.301 234.091 176.392 234.2 176.483 234.312C176.588 234.087 176.692 233.866 176.795 233.64C178.509 235.29 180.385 234.856 182.144 234.266C186.494 232.807 190.73 230.588 195.135 229.615C204.11 227.631 213.167 226.267 222.188 224.646C222.238 224.57 222.287 224.492 222.337 224.416C227.817 223.035 233.303 221.71 238.766 220.222C239.565 220.007 240.478 219.999 240.989 218.337C242.782 212.474 245.992 208.671 250.575 207.296C251.745 206.946 252.144 205.61 252.327 204.426C252.569 202.836 251.309 203.384 250.729 202.971C250.262 202.639 249.529 202.464 249.935 201.587C250.237 200.936 250.941 200.368 251.512 200.288C253.651 199.985 255.941 200.347 257.706 198.342C258.752 197.155 260.092 195.616 260.239 194.017C260.375 192.572 258.455 192.98 257.503 192.378C255.721 191.246 253.85 190.028 253.853 186.806C253.855 184.246 255.788 185.074 256.773 184.257C258.657 182.69 260.809 181.733 262.727 180.229C264.227 179.05 265.737 177.509 263.758 174.843C263.83 175.42 263.811 175.888 263.711 176.267C263.811 175.888 263.83 175.42 263.758 174.843C263.754 174.799 263.757 174.769 263.751 174.723C263.587 174.307 263.423 173.89 263.26 173.474L263.223 173.493C266.63 167.832 266.666 167.782 268.042 169.584C270.97 167.377 274.434 165.907 276.691 162.772C279.447 158.948 275.211 156.344 274.286 153.138C273.641 150.898 272.256 152.428 271.216 153.295C271.795 151.863 273.037 152.088 273.849 151.381C275.091 150.301 278.089 150.381 276.325 146.346C276.328 146.343 276.331 146.338 276.335 146.336C277.631 145.468 278.48 144.091 279.188 142.325C281.969 135.392 277.841 130.134 276.704 124.171C276.162 121.319 274.805 122.115 273.383 122.885C272.783 123.209 272.604 125.461 271.775 123.988C270.863 122.37 272.292 121.958 272.995 121.531C275.829 119.81 272.731 116.722 273.78 114.63C273.495 114.561 273.171 114.339 272.931 114.446C268.472 116.428 264.439 113.668 260.307 111.97C260.422 109.652 261.947 109.952 262.943 109.505C267.646 107.395 272.389 105.438 277.117 103.43C277.117 103.43 277.098 103.451 277.096 103.451C280.294 101.918 281.437 97.5546 283.547 94.5215C282.996 94.4809 282.406 94.6051 281.904 94.3585C277.694 92.2796 274.192 88.6063 270.814 84.6504C269.815 83.4774 267.211 83.4712 268.228 80.8625C269.447 77.7284 270.49 73.2513 274.267 74.3071C276.017 74.7962 277.492 73.9454 279.008 73.1546C280.67 72.2874 280.212 70.4554 279.61 69.0624C278.955 67.5409 277.745 67.6573 276.899 68.7147C274.4 71.8424 271.178 71.6702 268.143 72.3169C267.601 72.4344 266.97 71.8318 266.379 71.56C266.823 71.0881 267.256 70.5884 267.715 70.1416C268.327 69.544 269.669 69.5943 269.313 68.2009C269.132 67.4915 267.809 67.3026 266.999 66.8873C265.897 66.3232 263.803 65.5313 263.836 65.2441C264.248 61.5005 262.034 61.2387 260.635 61.1264C257.696 60.8962 258.375 56.2982 256.363 55.1919C257.313 52.9481 258.98 53.8435 260.375 53.5549C260.815 53.4637 261.275 53.5253 261.714 53.4341C261.98 53.3794 262.224 53.1567 262.478 53.0078C262.191 52.8129 261.871 52.4044 261.618 52.4613C259.262 53.0039 259.93 48.488 258.011 48.3545C258.635 46.4383 260.043 47.2861 261.072 46.8051C261.908 46.4122 262.83 46.3409 263.65 45.9077C264.048 45.6953 264.462 45.0328 264.555 44.4702C264.628 44.036 264.208 43.4316 264.006 42.9043C261.924 44.7868 260.717 40.1436 258.629 41.3927C257.976 41.7847 257.15 41.1527 257.003 39.824C259.485 40.271 258.636 34.9033 261.19 35.2969C259.498 35.0614 257.881 35.1556 256.264 35.1399C255.862 35.1353 255.456 34.773 255.05 34.5769C255.45 33.0232 256.585 33.8877 257.188 33.3901C251.23 32.6309 245.37 34.4666 239.431 35.3368C238.134 35.5276 236.574 36.7185 235.353 34.7047C233.864 36.1027 231.686 36.0365 231.203 35.4189C228.238 31.6358 230.486 23.7798 225.411 21.7601C227.854 19.4135 225.511 14.5624 225.9 14.2507C228.793 11.9353 225.139 10.8881 225.494 9.10334C225.775 7.69406 224.534 7.80907 223.763 7.91366" fill="#FB46F4"/>
<path d="M84.0887 23.5L82.8887 24.7L82.4887 24.2L83.5887 23.1L84.0887 23.5ZM83.6887 47.2V45.5H82.8887V47.2H83.6887ZM107.689 93.2C107.689 93.5333 107.489 93.9 107.089 94.3C106.689 94.6333 106.489 94.9667 106.489 95.3C106.489 96.7667 106.589 98.1667 106.789 99.5C107.055 100.767 107.189 102.267 107.189 104C106.922 104 106.522 104.233 105.989 104.7C105.389 105.367 105.022 106.033 104.889 106.7C104.822 106.7 104.689 106.633 104.489 106.5C104.355 106.367 104.089 106.3 103.689 106.3C103.289 106.3 100.655 107.667 95.7887 110.4C90.922 113.133 88.322 114.5 87.9887 114.5C86.8553 114.5 85.222 114.9 83.0887 115.7C82.9553 115.767 82.5887 115.733 81.9887 115.6C81.4553 115.467 81.022 115.4 80.6887 115.4C80.422 115.4 80.2887 115.467 80.2887 115.6C80.2887 115.667 80.322 115.733 80.3887 115.8C80.4553 115.933 80.4887 116.033 80.4887 116.1C80.422 116.233 80.2553 116.3 79.9887 116.3H78.6887C78.8887 115.7 78.8553 114.967 78.5887 114.1C78.322 113.233 78.1887 112.667 78.1887 112.4C78.1887 111.2 78.7887 110.3 79.9887 109.7C79.3887 109.033 78.822 108.967 78.2887 109.5C78.4887 108.967 78.4553 108.133 78.1887 107C77.922 105.933 77.7887 105.3 77.7887 105.1V97.8C80.9887 96.6667 84.0553 95.8333 86.9887 95.3C87.1887 95.0333 87.422 94.7667 87.6887 94.5C88.022 94.1667 88.422 94 88.8887 94C89.1553 94 89.422 94.1667 89.6887 94.5C89.822 93.7 89.9553 93.3 90.0887 93.3C90.0887 93.3667 90.122 93.4 90.1887 93.4C90.2553 93.3333 90.3553 92.9333 90.4887 92.2C89.7553 91.6 88.4553 90.8333 86.5887 89.9C86.4553 88.8333 86.1553 87.3333 85.6887 85.4C85.5553 85.5333 85.222 85.1667 84.6887 84.3C84.1553 83.3667 83.722 82.8667 83.3887 82.8C83.122 82.6667 82.7887 82.3667 82.3887 81.9C81.9887 81.3667 81.5887 81.1 81.1887 81.1C80.9887 81.1 80.422 81.2333 79.4887 81.5C78.5553 81.7 77.822 81.8 77.2887 81.8C76.7553 81.8 76.322 81.7333 75.9887 81.6C75.722 81.4 75.522 81.1667 75.3887 80.9H74.7887C74.8553 80.7667 74.8887 80.6 74.8887 80.4C74.7553 80.4 74.6553 80.4333 74.5887 80.5C74.3887 80.5667 74.2887 80.4333 74.2887 80.1C74.2887 79.3667 74.722 78.6 75.5887 77.8C75.522 77.6 75.422 77.3 75.2887 76.9C74.9553 76.8333 74.6553 76.9333 74.3887 77.2C74.5887 76.6667 74.5553 75.9 74.2887 74.9C74.022 74.6333 73.6553 74.3333 73.1887 74L73.3887 74.3C73.1887 74.4333 71.922 74.5 69.5887 74.5C69.122 74.5 68.7553 74.3333 68.4887 74C68.222 73.6 68.0553 73.4 67.9887 73.4C68.6553 72.5333 69.822 71.3667 71.4887 69.9C72.022 71.5667 72.5553 72.8667 73.0887 73.8V72.4L73.8887 71.6V70.8C73.0887 70.8667 72.6887 70.6 72.6887 70C72.6887 69.6 72.8553 69.0667 73.1887 68.4C73.5887 67.6667 73.822 67.1667 73.8887 66.9V65.5C75.1553 65.5667 76.6553 65.5667 78.3887 65.5C78.8553 65.3 79.5553 64.8333 80.4887 64.1C81.1553 63.5 81.7887 63.2 82.3887 63.2C82.7887 62.8 82.9887 62.1333 82.9887 61.2C82.9887 60.9333 82.9887 60.6667 82.9887 60.4C83.2553 60.1333 83.7553 60 84.4887 60C84.6887 61.2667 84.722 62.1 84.5887 62.5C84.9887 61.9667 85.4553 61.7 85.9887 61.7C86.2553 61.7 86.5553 61.8667 86.8887 62.2C86.9553 60.6667 87.1887 58.2 87.5887 54.8C86.8553 54.2667 85.5553 53.5333 83.6887 52.6C83.5553 51.8667 83.2553 50.7 82.7887 49.1C82.322 49.5667 81.5553 49.6667 80.4887 49.4C80.1553 49.3333 79.6553 49.4333 78.9887 49.7C78.3887 49.9 77.922 50 77.5887 50C76.9887 50 75.822 49.4 74.0887 48.2C73.622 48 73.222 47.2 72.8887 45.8C73.0887 45.6 73.3887 45.3 73.7887 44.9C73.5887 43.6333 73.3887 42.3667 73.1887 41.1C72.8553 39.5 72.222 38.3333 71.2887 37.6V36L72.3887 35L73.1887 35.5C73.1887 35.4333 73.222 35.2333 73.2887 34.9C73.422 34.5 73.4887 34.0333 73.4887 33.5C72.9553 32.9667 72.622 32.7 72.4887 32.7C72.2887 32.9 72.222 33.2 72.2887 33.6C72.422 34.2 72.4887 34.5 72.4887 34.5C71.3553 34.5 70.7887 34.2 70.7887 33.6C70.7887 33.2667 71.022 32.3 71.4887 30.7C72.022 29.1 72.2887 27.9333 72.2887 27.2C72.2887 26.9333 72.2553 26.7 72.1887 26.5C72.922 26.3 74.122 26.3 75.7887 26.5C77.8553 26.7 79.122 26.8 79.5887 26.8C79.9887 26.4 80.1553 25.7667 80.0887 24.9C80.0887 24.6333 80.0887 24.3667 80.0887 24.1C80.3553 23.8333 80.8553 23.7 81.5887 23.7C81.8553 25.3 81.722 26.4333 81.1887 27.1C81.7887 27.8333 82.4887 28.2 83.2887 28.2C83.6887 28.2 83.922 28.2667 83.9887 28.4C84.0553 28.5333 84.2553 28.6 84.5887 28.6C85.1887 28.6 85.4887 28.3 85.4887 27.7C86.3553 29.1667 88.522 30.2333 91.9887 30.9C92.2553 31.1667 92.1553 31.5667 91.6887 32.1C92.7553 32.8333 94.1887 34.1 95.9887 35.9C96.322 35.7667 96.4887 35.5333 96.4887 35.2C96.4887 35.4667 97.222 35.7667 98.6887 36.1C99.3553 37.2333 100.355 38.4667 101.689 39.8C101.555 39.9333 101.322 40.1 100.989 40.3C100.722 40.4333 100.489 40.5667 100.289 40.7C102.022 42.3 103.189 43.8 103.789 45.2C103.655 45.5333 103.589 46.7667 103.589 48.9C103.589 51.3667 103.789 53.1 104.189 54.1C104.655 55.1 104.889 55.7 104.889 55.9C104.889 56.2333 104.655 56.6 104.189 57C103.789 57.3333 103.589 57.6667 103.589 58C103.589 59.4667 103.722 61.7 103.989 64.7C104.255 67.6333 104.389 69.9667 104.389 71.7C103.655 71.7 102.955 72.3 102.289 73.5C102.955 74.3667 103.722 75.2333 104.589 76.1C104.389 76.2333 104.122 76.4 103.789 76.6C103.522 76.7333 103.322 76.8667 103.189 77C104.922 78.6 106.089 80.1 106.689 81.5C106.555 81.8333 106.489 83.0667 106.489 85.2C106.489 87.6667 106.689 89.5667 107.089 90.9C107.489 92.2333 107.689 93 107.689 93.2ZM81.0887 51.4C80.222 50.4667 80.0887 50 80.6887 50C80.9553 50.6 81.0887 51.0667 81.0887 51.4ZM56.2887 89.1L55.9887 89.7L54.7887 89.1L55.0887 88.5L56.2887 89.1ZM52.9887 89C52.0553 89 51.1887 89.1667 50.3887 89.5C50.3887 88.3667 50.422 87.7667 50.4887 87.7C51.3553 87.7 52.1887 88.1333 52.9887 89ZM49.3887 78.4H47.1887V77.6H49.3887V78.4ZM45.1887 58.2C44.9887 58 44.6887 58 44.2887 58.2C43.8887 58.3333 43.4887 58.4667 43.0887 58.6C43.4887 58.7333 44.022 58.7 44.6887 58.5C45.3553 58.3 45.522 58.2 45.1887 58.2ZM63.4887 110.9C63.4887 110.433 63.322 109.867 62.9887 109.2C62.6553 108.533 62.4553 108.1 62.3887 107.9C62.722 103.1 62.8887 100.533 62.8887 100.2C62.8887 99.4667 62.6553 98.5 62.1887 97.3C61.6553 95.7 61.322 94.7333 61.1887 94.4C61.4553 94.1333 61.8887 93.8 62.4887 93.4C62.8887 93.2 63.0553 93.0333 62.9887 92.9C62.1887 90.9667 61.7887 88.9 61.7887 86.7C61.7887 85.3 61.9553 83.9 62.2887 82.5C62.022 81.9667 61.8553 80.3 61.7887 77.5C61.7887 76.0333 61.7553 75.1333 61.6887 74.8C61.5553 74.0667 61.2553 73.2667 60.7887 72.4V56.5C60.7887 56.1667 60.922 55.6333 61.1887 54.9C61.4553 54.1667 61.5553 53.6667 61.4887 53.4C61.0887 49.9333 60.5887 45.2333 59.9887 39.3C60.2553 38.1667 60.4553 36.6667 60.5887 34.8C60.3887 33.4 59.9887 31.7333 59.3887 29.8L59.8887 29.3C59.3553 28.4333 57.8553 27.9333 55.3887 27.8C52.922 27.6 51.4553 27.2 50.9887 26.6C48.4553 26.8667 45.0887 26.8 40.8887 26.4C40.8887 26.1333 40.7887 27.7 40.5887 31.1C40.4553 34.5 40.3887 38.8 40.3887 44C40.3887 44 40.6887 44.1333 41.2887 44.4C41.8887 44.6667 42.1887 45.0333 42.1887 45.5C42.1887 46.1667 41.8887 46.1667 41.2887 45.5C41.2887 46.0333 41.3553 47.2 41.4887 49C41.622 50.4667 41.622 51.6333 41.4887 52.5C41.4887 52.7667 41.3887 53.3 41.1887 54.1C40.9887 54.8333 40.8887 55.3667 40.8887 55.7C40.8887 56.0333 41.0887 56.4667 41.4887 57C41.9553 57.5333 42.1887 57.8333 42.1887 57.9C41.8553 58.1667 41.5553 58.3667 41.2887 58.5C41.5553 58.5 41.8887 58.4 42.2887 58.2C42.3553 58.3333 42.3887 58.4667 42.3887 58.6C42.3887 58.7333 42.0553 59.2667 41.3887 60.2C41.722 62.7333 41.6553 65.1667 41.1887 67.5C41.1887 67.6333 41.4553 68.1333 41.9887 69C41.9887 69.0667 41.822 69.9333 41.4887 71.6C42.0887 72.5333 42.1887 73.3667 41.7887 74.1C41.122 74.1 40.7887 74.3667 40.7887 74.9C41.722 75.6333 42.2553 76.6 42.3887 77.8C42.522 79 42.622 80.1667 42.6887 81.3C43.6887 81.1667 44.422 81.4 44.8887 82C43.822 82.6 42.9553 82.7 42.2887 82.3C42.1553 82.7 42.1553 83.2333 42.2887 83.9C42.422 84.7 42.4887 85.2 42.4887 85.4C42.4887 86.1333 42.222 86.7 41.6887 87.1C42.0887 87.1 42.522 87.2333 42.9887 87.5C43.4553 87.7 43.6887 87.9333 43.6887 88.2C44.2887 87.5333 44.722 87.2 44.9887 87.2C45.6553 89.4 46.4553 90.5 47.3887 90.5C47.722 90.5 48.0887 90.3333 48.4887 90C48.8887 89.6667 49.2887 89.5 49.6887 89.5C50.422 89.5 50.7887 90 50.7887 91C50.3887 91.2 50.122 91.2667 49.9887 91.2C49.7887 91.0667 49.822 90.9 50.0887 90.7C49.3553 91.4333 48.5887 91.8 47.7887 91.8C47.4553 91.8 47.0887 91.6667 46.6887 91.4C46.2887 91.0667 45.922 90.9 45.5887 90.9C44.522 90.9 43.3887 91.2333 42.1887 91.9V94C42.9887 94.8 43.3553 95.6 43.2887 96.4C43.2887 96.2 43.622 96.1 44.2887 96.1C45.222 96.1 45.922 96.0333 46.3887 95.9C46.522 96.0333 46.622 96.2333 46.6887 96.5C46.822 96.7 46.9887 96.8667 47.1887 97C45.522 98.0667 44.3553 98.6 43.6887 98.6C43.022 98.6 42.6887 98.4667 42.6887 98.2V107.2C43.1553 107.2 43.4553 107.467 43.5887 108C43.5887 108.4 43.5887 109.8 43.5887 112.2C45.1887 112.333 47.9887 112.7 51.9887 113.3C55.522 113.833 57.4553 114.1 57.7887 114.1C58.1887 114.1 58.522 114.167 58.7887 114.3C59.122 114.433 59.4887 114.5 59.8887 114.5C60.2887 114.5 60.822 114.4 61.4887 114.2C62.222 114.067 62.722 114 62.9887 114C62.9887 113.733 63.0553 113.233 63.1887 112.5C63.3887 111.833 63.4887 111.3 63.4887 110.9ZM51.5887 82.4V81.6H49.9887V82.4H51.5887ZM47.5887 79L45.8887 77.3C45.8887 77.4333 45.722 77.6667 45.3887 78C45.122 78.2667 44.9887 78.4667 44.9887 78.6C45.322 78.4 45.7553 78.4 46.2887 78.6C46.9553 78.8667 47.3887 79 47.5887 79ZM49.2887 81.3C49.2887 80.4333 49.122 79.8667 48.7887 79.6C48.7887 79.6 48.3887 80 47.5887 80.8C48.322 80.8 48.8887 80.9667 49.2887 81.3ZM162.173 101.1L161.573 102.3L160.973 102L161.573 100.9L162.173 101.1ZM135.773 30.4L134.673 31.5L134.173 31L135.273 29.9L135.773 30.4ZM181.073 113C180.74 113.4 180.573 113.733 180.573 114C174.84 114 169.806 113.933 165.473 113.8C161.14 113.667 159.306 113.6 159.973 113.6C159.573 113.6 158.706 112.167 157.373 109.3C156.04 106.5 155.273 104.567 155.073 103.5C155.006 103.233 154.673 102.667 154.073 101.8C153.54 100.933 153.273 100.167 153.273 99.5C153.273 99.1667 153.306 98.8333 153.373 98.5C153.106 98.2333 152.706 98.2667 152.173 98.6C152.173 98.5333 152.306 98.2667 152.573 97.8C152.84 97.2667 152.973 96.8 152.973 96.4C152.973 96 152.573 95.0333 151.773 93.5C150.506 91.1 149.706 89.5333 149.373 88.8C149.506 88.2 149.606 87.8333 149.673 87.7C149.806 87.5 150.14 87.2667 150.673 87C150.206 86.4 149.473 86.1667 148.473 86.3C148.473 85.1 148.473 84.4333 148.473 84.3C148.34 83.9 148.106 83.3 147.773 82.5C147.773 82.4333 147.806 82.2333 147.873 81.9C147.94 81.5 147.973 81.1667 147.973 80.9C147.973 79.8333 147.406 79.0333 146.273 78.5C146.34 77.7667 146.173 76.5667 145.773 74.9C145.773 74.7667 145.973 74 146.373 72.6C145.906 72.8 145.673 72.5333 145.673 71.8C145.673 67 146.006 64 146.673 62.8C147.206 62 149.073 61 152.273 59.8C155.14 58.6667 156.573 57.4333 156.573 56.1C156.573 53.9 154.94 52.5667 151.673 52.1C151.273 51.8333 151.14 51.3667 151.273 50.7C150.473 50.4333 149.206 50.1667 147.473 49.9C145.74 49.6333 144.406 49.3333 143.473 49C143.473 48.8667 143.806 48.7667 144.473 48.7C145.14 48.5667 145.54 48.4 145.673 48.2C145.273 47.6 144.906 47.3 144.573 47.3L143.473 47.7C143.073 45.7 142.64 42.7667 142.173 38.9C141.24 37.4333 140.773 36.4667 140.773 36H142.173C142.373 35.7333 142.473 35.4 142.473 35C142.473 32.8667 141.873 30.3333 140.673 27.4C140.94 27.4 141.373 27.2333 141.973 26.9C142.573 26.5667 143.04 26.4 143.373 26.4C149.306 26.4 154.406 27.0667 158.673 28.4C158.873 28.8 159.206 29.3 159.673 29.9C161.54 30.8333 162.873 31.5667 163.673 32.1C165.14 33.1 165.973 34.1 166.173 35.1C166.64 35.3 167.173 35.6 167.773 36C167.84 36.2 167.873 36.9667 167.873 38.3C168.54 38.4333 169.406 38.7333 170.473 39.2C171.406 42.1333 171.873 46.1667 171.873 51.3C171.873 55.0333 171.673 58.4333 171.273 61.5C171.54 61.7 171.94 62.0333 172.473 62.5C171.473 63.4333 169.506 64.8667 166.573 66.8C163.706 68.7333 161.74 70.2 160.673 71.2L181.073 113ZM131.873 115.4C129.806 115.4 126.34 115.267 121.473 115C117.34 114.8 114.306 114.733 112.373 114.8L111.673 115.3V99.2C112.206 99.0667 113.073 98.8 114.273 98.4C113.54 98.2667 112.64 98 111.573 97.6C111.573 97.2 111.873 96.7 112.473 96.1C112.206 87.3 112.14 82.7667 112.273 82.5C111.94 81.5 111.706 79.0667 111.573 75.2C111.573 74.0667 111.306 72.1 110.773 69.3C110.906 68.9667 111.106 68.5 111.373 67.9C110.973 63.7667 110.84 61.0667 110.973 59.8C110.84 59.6667 110.64 59.3667 110.373 58.9C110.64 56.5667 110.773 53.5333 110.773 49.8C110.773 48.7333 110.54 47.8333 110.073 47.1C110.273 45.1667 110.373 43.3333 110.373 41.6C110.373 41.3333 110.206 40.9 109.873 40.3C109.606 39.7 109.44 39.2333 109.373 38.9C109.64 37.3 109.673 35.0333 109.473 32.1C109.073 30.9 108.873 29.7667 108.873 28.7C109.34 28.2333 109.973 27.6667 110.773 27C111.106 26.9333 111.806 26.7333 112.873 26.4C113.94 26.0667 114.64 25.9 114.973 25.9C115.44 25.9 115.806 26.0667 116.073 26.4C116.406 26.6667 116.673 26.9333 116.873 27.2C118.806 27.2 121.673 27.3333 125.473 27.6C126.34 27.8 126.94 28.2 127.273 28.8C127.406 29.6667 127.706 38.1667 128.173 54.3C128.44 54.7667 128.706 55.3667 128.973 56.1C128.706 61.9667 129.206 66.8333 130.473 70.7C129.94 71.6333 129.673 73.0667 129.673 75C129.673 75.2667 129.906 77.7667 130.373 82.5C130.44 83.8333 130.573 85.8 130.773 88.4C130.906 89.5333 130.806 90.9 130.473 92.5C130.273 93.5667 130.24 94.6333 130.373 95.7C130.64 97.9667 131.073 101.3 131.673 105.7C131.94 107.833 132.006 111.067 131.873 115.4ZM150.573 33.6C150.573 33.3333 150.406 32.9 150.073 32.3C149.473 32.3 149.64 32.7333 150.573 33.6ZM152.073 46.9L151.773 46.2L150.773 46.8V47.4L152.073 46.9ZM118.473 33.8L117.873 33.1L117.373 33.5L117.973 34.2L118.473 33.8ZM155.173 82.9C153.906 82.9 152.906 82.7 152.173 82.3C152.173 83.1667 152.506 83.6 153.173 83.6C154.04 83.6 154.706 83.3667 155.173 82.9ZM157.373 93.3V92.6H155.273V93.3H157.373ZM257.39 97.7C257.39 98.0333 256.057 99.4 253.39 101.8C252.99 102.133 251.557 103.933 249.09 107.2C246.957 110.067 245.157 111.933 243.69 112.8C241.624 113.667 238.857 114.9 235.39 116.5L232.89 115.9L234.19 114.5C233.99 114.3 233.557 114.2 232.89 114.2C232.89 112.467 232.924 111.667 232.99 111.8C232.257 109.2 231.89 107.4 231.89 106.4C231.89 105.4 232.09 104.3 232.49 103.1C232.09 101.9 231.657 100.333 231.19 98.4C230.524 92.9333 230.19 90.2 230.19 90.2V86.9C231.19 86.3 232.69 85.1667 234.69 83.5C237.424 81.1667 238.79 79.4667 238.79 78.4C238.79 78.0667 238.59 77.7 238.19 77.3C237.79 76.8333 237.557 76.4667 237.49 76.2C237.224 75 237.457 73.7667 238.19 72.5C237.59 69.4333 236.924 64.9 236.19 58.9C236.524 58.7667 236.857 58.4667 237.19 58C237.124 57.5333 236.99 56.7667 236.79 55.7C235.99 51.8333 235.69 48.6667 235.89 46.2C235.624 45.7333 235.257 45.1333 234.79 44.4C234.59 42.8 234.49 40.7667 234.49 38.3C234.557 34.9 234.557 32.8333 234.49 32.1C234.024 31.3 233.79 30.6667 233.79 30.2V27.8C237.59 27.7333 242.39 27.8333 248.19 28.1C249.124 28.7667 250.057 29.1333 250.99 29.2C250.99 30.5333 250.69 31.3333 250.09 31.6C250.89 32.3333 251.457 33.3667 251.79 34.7C252.724 38.5 253.19 43.2333 253.19 48.9C253.19 49.1667 253.324 49.7 253.59 50.5C253.857 51.3 254.024 51.8 254.09 52C254.557 59.6 255.457 70.9667 256.79 86.1C256.857 86.9 256.657 88.1333 256.19 89.8C256.99 92.6667 257.39 95.3 257.39 97.7ZM219.19 107C219.19 109.6 219.157 111.067 219.09 111.4C218.357 113.333 217.557 114.3 216.69 114.3C216.357 114.3 215.357 114.2 213.69 114C212.024 113.867 211.024 113.8 210.69 113.8C210.424 113.8 209.124 113.133 206.79 111.8C204.524 110.533 202.657 109.833 201.19 109.7C200.724 109.3 200.624 108.533 200.89 107.4C200.624 107.4 200.19 107.333 199.59 107.2C198.99 107.067 198.657 107 198.59 107C196.79 104.6 193.857 101.167 189.79 96.7C190.124 94.5 189.49 93 187.89 92.2C187.89 91.8667 188.124 91.4667 188.59 91C189.057 90.4667 189.324 90.0667 189.39 89.8C189.19 88.6667 189.19 88.0333 189.39 87.9C189.59 87.7 189.69 87.5667 189.69 87.5C189.69 87.3667 189.457 85.4 188.99 81.6C188.524 77.7333 188.257 74.8333 188.19 72.9C188.39 72.5 188.69 71.8 189.09 70.8C188.424 69.5333 188.257 67.8667 188.59 65.8C187.79 64.9333 187.39 63.9 187.39 62.7C187.39 61.9667 187.524 61.4667 187.79 61.2C187.924 61.1333 188.424 60.9333 189.29 60.6V58.4C189.224 58.1333 188.924 57.8667 188.39 57.6C187.924 57.3333 187.624 57.0333 187.49 56.7C187.49 55.4333 187.424 53.7333 187.29 51.6C187.224 50.6 186.99 48.9667 186.59 46.7C186.524 46.5 186.59 46.0667 186.79 45.4C186.99 44.6667 187.09 44.1333 187.09 43.8C187.09 42.9333 186.757 42.2333 186.09 41.7V28.5C187.89 28.4333 193.757 28.8 203.69 29.6C203.957 31.2 204.224 34.9 204.49 40.7C204.624 43.1 205.224 47.4667 206.29 53.8C206.357 53.8667 206.157 54.2 205.69 54.8C206.357 60.3333 206.857 67.7333 207.19 77C207.857 78.5333 209.757 80.1333 212.89 81.8C216.09 83.4667 217.79 84.6 217.99 85.2C217.924 87.8 218.09 92.1333 218.49 98.2C218.957 104.267 219.19 107.2 219.19 107ZM241.49 95.9L239.79 95.3V96L241.29 96.5L241.49 95.9ZM202.79 102.8C202.457 102.467 202.29 101.9 202.29 101.1C202.157 101.167 201.457 101.2 200.19 101.2C200.524 101.533 201.39 102.067 202.79 102.8ZM98.7156 237.5C97.5823 237.1 95.949 236.9 93.8156 236.9C94.6823 236.5 95.849 235.967 97.3156 235.3C98.249 236.233 98.7156 236.967 98.7156 237.5ZM100.616 239.5C99.8156 239.767 98.5156 240.167 96.7156 240.7C96.9156 239.633 96.9156 238.8 96.7156 238.2C96.5156 237.667 96.3156 237.567 96.1156 237.9C95.9156 238.167 95.9156 238.733 96.1156 239.6C96.849 238.867 97.449 238.5 97.9156 238.5C98.3823 238.5 98.9156 238.667 99.5156 239C100.182 239.333 100.549 239.5 100.616 239.5ZM95.3156 240.6H94.7156L94.1156 239.6L94.8156 239.3L95.3156 240.6ZM98.6156 243.9C98.6823 243.967 98.7156 244.033 98.7156 244.1C98.7156 244.633 98.449 244.9 97.9156 244.9C97.649 244.9 97.5156 244.767 97.5156 244.5C97.7823 244.367 98.149 244.167 98.6156 243.9ZM120.816 164.1L120.316 164.5L119.616 163.8L120.116 163.4L120.816 164.1ZM116.616 166.2L116.316 166.8L115.216 166.2L115.416 165.6L116.616 166.2ZM125.716 175.7L125.416 176.4L124.316 175.8L124.516 175.1L125.716 175.7ZM113.416 165.1C111.749 165.1 110.549 164.733 109.816 164C110.082 164.133 110.649 164.333 111.516 164.6C112.449 164.8 113.082 164.967 113.416 165.1ZM132.916 168.7C132.916 169.1 132.849 169.267 132.716 169.2C132.449 169.067 132.249 169.067 132.116 169.2C132.516 173.333 132.482 177.6 132.016 182C131.082 182.2 129.749 182.667 128.016 183.4C128.016 182.533 127.616 182.1 126.816 182.1C126.349 182.1 125.916 182.233 125.516 182.5C125.182 182.767 124.949 182.9 124.816 182.9C124.816 182.767 124.649 182.567 124.316 182.3C124.049 181.967 123.916 181.7 123.916 181.5C123.582 181.367 123.116 181.467 122.516 181.8C121.916 182.067 121.449 182.133 121.116 182C121.116 181 121.282 180.367 121.616 180.1C121.149 179.633 120.682 179.4 120.216 179.4C119.749 179.4 119.316 179.733 118.916 180.4C118.516 181 118.316 181.567 118.316 182.1C117.182 181.567 116.616 180.9 116.616 180.1C116.616 180.033 116.616 179.9 116.616 179.7C116.616 179.433 116.616 179.267 116.616 179.2C116.616 178.467 116.316 177.833 115.716 177.3C116.116 176.833 116.549 176.6 117.016 176.6C117.416 176.6 117.716 176.8 117.916 177.2C118.182 177.8 118.416 178.233 118.616 178.5C118.682 178.433 118.782 178.033 118.916 177.3C118.916 177.233 118.949 176.967 119.016 176.5C119.082 176.167 119.016 176 118.816 176C118.949 176.2 119.116 176.267 119.316 176.2C119.582 176.067 119.816 176.067 120.016 176.2L121.116 175C121.049 174.8 120.849 174.467 120.516 174C120.249 173.533 120.116 173.1 120.116 172.7C120.116 172.5 120.149 172.267 120.216 172C119.482 172 119.082 172.033 119.016 172.1C118.882 171.833 118.782 171.8 118.716 172C118.649 172.267 118.649 172.733 118.716 173.4C117.516 172.933 116.649 172.067 116.116 170.8C117.116 170.8 117.716 170.7 117.916 170.5C117.582 169.767 116.682 169.4 115.216 169.4C114.949 169.4 114.816 169.467 114.816 169.6C114.816 169.6 114.849 169.667 114.916 169.8C114.982 169.933 115.016 170.033 115.016 170.1C114.949 170.233 114.782 170.3 114.516 170.3C114.182 170.3 113.882 170.233 113.616 170.1C113.416 169.9 113.116 169.8 112.716 169.8C112.316 169.8 112.082 169.733 112.016 169.6C112.016 169.467 111.982 169.4 111.916 169.4L111.516 169.7V170.9C111.982 171.3 112.582 171.833 113.316 172.5C112.582 172.5 112.216 172.367 112.216 172.1L111.616 172.8C112.282 173.467 112.916 174.1 113.516 174.7C114.182 175.233 115.049 175.667 116.116 176C115.649 176.133 114.949 176.5 114.016 177.1C113.149 177.633 112.649 177.9 112.516 177.9C112.916 177.5 112.949 177.067 112.616 176.6C112.416 176.733 111.316 176.7 109.316 176.5C109.849 175.833 110.649 175.733 111.716 176.2C111.916 176.067 112.049 175.9 112.116 175.7C112.182 175.433 112.316 175.2 112.516 175C112.049 174.8 111.282 174.4 110.216 173.8C110.216 169.667 110.216 167.6 110.216 167.6H112.316L113.216 168.5L114.516 167.1C115.449 167.433 116.682 168.033 118.216 168.9C118.416 168.9 118.949 168.5 119.816 167.7V166.5C118.216 165.633 116.282 164.867 114.016 164.2C113.749 163.733 113.249 163.133 112.516 162.4C113.716 162.067 115.216 161.433 117.016 160.5C116.616 160.033 115.949 159.8 115.016 159.8C114.149 159.8 113.016 160.233 111.616 161.1C111.482 161.767 111.416 162.233 111.416 162.5C111.416 162.367 111.249 162.067 110.916 161.6C110.449 162.267 109.882 162.567 109.216 162.5C109.216 163.967 109.382 165.033 109.716 165.7C106.182 163.9 104.316 163 104.116 163C103.649 163 103.282 163.067 103.016 163.2C102.816 163.333 102.682 163.4 102.616 163.4C101.482 162.067 101.049 160.567 101.316 158.9C103.716 161.367 105.082 162.6 105.416 162.6C105.816 162.6 106.182 162.533 106.516 162.4C106.916 162.2 107.316 162.1 107.716 162.1C108.782 162.1 109.449 162 109.716 161.8C109.449 161.333 108.849 160.733 107.916 160C108.116 160 108.616 160.067 109.416 160.2C110.282 160.267 110.916 160.3 111.316 160.3C111.782 160.3 112.082 160.167 112.216 159.9C112.416 159.567 112.516 159.4 112.516 159.4L113.616 160.3C113.682 160.233 113.749 160.067 113.816 159.8C113.882 159.533 114.116 159.4 114.516 159.4C114.916 159.4 116.282 159.267 118.616 159C120.949 158.667 122.316 158.5 122.716 158.5C123.116 158.5 123.482 158.567 123.816 158.7C124.216 158.833 124.616 158.9 125.016 158.9C126.149 158.9 128.316 159.233 131.516 159.9C131.649 160.167 131.649 160.633 131.516 161.3C131.249 162.167 131.116 162.733 131.116 163C131.116 163.4 131.416 164.367 132.016 165.9C132.616 167.367 132.916 168.3 132.916 168.7ZM122.016 178.4C121.616 178.4 121.249 178.5 120.916 178.7C120.582 178.833 120.382 178.9 120.316 178.9V177.2C120.516 177.2 120.849 177.367 121.316 177.7C121.782 177.967 122.016 178.2 122.016 178.4ZM99.8156 159.8L99.5156 160.4L98.0156 159.9V159.2L99.8156 159.8ZM99.5156 162.8C99.3156 163 99.2156 163.5 99.2156 164.3C98.749 164.3 98.1823 163.933 97.5156 163.2C97.649 163.067 97.9823 163 98.5156 163C99.049 163 99.3823 162.933 99.5156 162.8ZM97.0156 161.1C96.6823 161.1 96.149 161.433 95.4156 162.1C95.0823 161.433 94.4156 160.633 93.4156 159.7L94.5156 158.5C94.649 158.567 95.0156 158.933 95.6156 159.6C96.2156 160.2 96.6823 160.7 97.0156 161.1ZM96.1156 163.8C95.7156 163.8 94.8823 163.767 93.6156 163.7C92.2823 163.7 91.2156 163.7 90.4156 163.7C90.549 163.7 90.849 163.5 91.3156 163.1C91.849 162.633 92.249 162.333 92.5156 162.2C92.5156 161.8 92.249 161.6 91.7156 161.6V158.9C92.7156 160.833 94.1823 162.467 96.1156 163.8ZM89.7156 159.6L88.1156 160.3L87.5156 159L89.7156 159.6ZM98.8156 172.3C98.6823 172.433 98.5156 172.467 98.3156 172.4C97.9823 172.2 97.6156 172.1 97.2156 172.1C96.8156 172.1 96.549 172.233 96.4156 172.5C96.349 172.767 96.2823 172.9 96.2156 172.9C96.2156 171.5 96.249 170.8 96.3156 170.8C96.649 170.8 97.049 171 97.5156 171.4C98.249 171.933 98.6823 172.233 98.8156 172.3ZM86.7156 162H86.1156L85.5156 161L86.1156 160.7L86.7156 162ZM91.0156 166.8H89.8156V166H91.0156V166.8ZM78.4156 180.6L77.3156 181.6C76.9156 181.6 76.2823 181.167 75.4156 180.3C74.749 180.567 73.7823 181 72.5156 181.6C73.1156 180.533 72.8156 179.7 71.6156 179.1C71.6823 179.1 71.849 179.167 72.1156 179.3C72.3823 179.367 72.749 179.4 73.2156 179.4C73.549 179.4 73.7156 179.267 73.7156 179C73.7156 178.667 73.9156 178.5 74.3156 178.5C75.849 178.5 77.0156 178.333 77.8156 178C77.8156 178.133 77.9156 178.533 78.1156 179.2C78.3156 179.8 78.4156 180.267 78.4156 180.6ZM111.616 240C111.616 242.267 111.416 244.3 111.016 246.1C101.549 246.1 95.5156 245.933 92.9156 245.6C93.1156 245.133 93.3823 244.5 93.7156 243.7C93.049 242.567 92.8823 241.2 93.2156 239.6C93.0156 239.467 92.6156 239.2 92.0156 238.8C92.0156 238.733 92.4823 238.233 93.4156 237.3C92.8823 236.833 92.449 236.6 92.1156 236.6C92.249 235.8 92.3156 234.867 92.3156 233.8C92.3156 232 92.049 229.433 91.5156 226.1C90.9823 222.7 90.7156 220.667 90.7156 220V215.3C92.1823 215.3 92.9156 215.3 92.9156 215.3C92.5156 214.967 91.8156 214.3 90.8156 213.3C90.6156 209.833 90.4823 208.033 90.4156 207.9C90.4156 207.7 90.249 207.367 89.9156 206.9C89.9156 206.9 89.849 206.6 89.7156 206C89.649 205.4 89.649 204.867 89.7156 204.4C89.849 203.933 90.1823 203.533 90.7156 203.2C90.3823 203 90.0823 202.9 89.8156 202.9C89.8156 202.9 89.8156 202.367 89.8156 201.3C89.8156 200.167 89.8156 198.633 89.8156 196.7C89.8156 193.9 89.8156 190.333 89.8156 186C89.549 185.333 88.8156 184.233 87.6156 182.7C86.949 182.633 85.8823 182.633 84.4156 182.7C82.6156 182.833 81.449 182.9 80.9156 182.9C79.849 182.9 78.2823 182.767 76.2156 182.5C74.149 182.233 72.9823 182.1 72.7156 182.1C72.3156 182.1 71.6823 182.267 70.8156 182.6C70.0156 182.867 69.449 183 69.1156 183C68.7156 183 68.249 182.867 67.7156 182.6C67.1823 182.267 66.8156 182.067 66.6156 182C67.4156 179.733 67.649 178.2 67.3156 177.4C66.5823 175.6 66.2156 173.467 66.2156 171C66.2156 170.267 66.249 169.2 66.3156 167.8C66.449 166.333 66.5156 165.267 66.5156 164.6C66.5156 162.8 66.249 161.233 65.7156 159.9C66.1823 159.9 66.949 159.733 68.0156 159.4C69.149 159.067 69.8823 158.9 70.2156 158.9C69.549 158.9 73.249 159.367 81.3156 160.3C81.7156 159.9 81.7156 159.5 81.3156 159.1L82.5156 160.1C82.049 160.367 81.2823 160.833 80.2156 161.5L80.9156 162.1C82.849 161.433 83.8156 160.867 83.8156 160.4C83.8156 160.133 83.5156 159.833 82.9156 159.5C83.7823 159.367 85.149 159.367 87.0156 159.5C86.4823 160.033 85.949 160.133 85.4156 159.8C84.749 160.4 84.5823 161.267 84.9156 162.4C85.249 163.8 85.1156 164.9 84.5156 165.7C83.3156 164.5 82.1823 163.9 81.1156 163.9C80.7156 163.9 80.449 164 80.3156 164.2C80.1823 164.333 79.8823 164.4 79.4156 164.4C79.0156 164.4 78.849 164.5 78.9156 164.7C79.049 165.3 79.1156 165.5 79.1156 165.3C78.9823 164.633 78.6823 163.733 78.2156 162.6C77.4823 163.133 76.1823 164.267 74.3156 166C74.849 166.733 75.849 167.1 77.3156 167.1C77.9823 167.1 78.049 166.833 77.5156 166.3C77.7156 166.3 78.0823 166.567 78.6156 167.1L79.5156 166.2C79.649 166.267 79.6823 166.533 79.6156 167C79.6156 167.4 79.8156 167.6 80.2156 167.6C80.549 167.6 80.749 167.533 80.8156 167.4C80.8823 167.4 80.8823 167.3 80.8156 167.1C80.749 166.9 80.7156 166.767 80.7156 166.7C80.9156 166.7 81.3156 167 81.9156 167.6C82.849 167.6 83.049 167.333 82.5156 166.8C83.049 166.8 83.749 167.033 84.6156 167.5C85.8156 168.1 86.5156 168.433 86.7156 168.5C86.849 168.367 87.0156 168 87.2156 167.4C87.4156 166.733 87.5823 166.333 87.7156 166.2C89.1156 167.4 90.249 168 91.1156 168C92.1823 168 92.849 167.7 93.1156 167.1L94.1156 168C95.9156 167.067 97.049 166.6 97.5156 166.6C97.849 166.6 98.049 166.767 98.1156 167.1C98.249 167.433 98.4823 167.6 98.8156 167.6C99.349 167.6 99.7823 167.433 100.116 167.1C100.116 167.767 100.449 168.1 101.116 168.1C100.449 168.967 100.382 169.833 100.916 170.7C101.382 169.5 102.016 167.833 102.816 165.7C102.482 167.233 102.482 168.333 102.816 169C103.682 169 104.116 168.6 104.116 167.8C104.116 167.8 104.449 168.233 105.116 169.1V173C104.382 171.6 103.282 170.533 101.816 169.8C101.616 170 101.616 170.233 101.816 170.5C101.949 170.7 102.149 170.8 102.416 170.8V172.9C101.682 173.3 101.316 173.867 101.316 174.6C101.316 173.267 100.649 172.6 99.3156 172.6C98.9156 172.6 98.249 172.833 97.3156 173.3C96.449 173.7 95.8156 173.9 95.4156 173.9C95.0823 173.9 94.9156 173.767 94.9156 173.5C94.9156 173.167 94.7156 173 94.3156 173C93.849 173 93.5156 173.133 93.3156 173.4C93.1823 173.667 93.049 173.8 92.9156 173.8C93.1156 173.267 93.349 172.633 93.6156 171.9C94.0156 171.7 94.549 171.367 95.2156 170.9C95.349 170.767 95.249 170.567 94.9156 170.3C93.5823 170.833 92.6156 171.5 92.0156 172.3C92.349 172.633 92.649 172.8 92.9156 172.8C92.649 173.067 92.0823 173.567 91.2156 174.3C91.2156 173.167 91.0823 172.267 90.8156 171.6C90.4156 171.6 90.249 172.033 90.3156 172.9C90.449 174.167 90.5156 175.267 90.5156 176.2C90.1823 175.867 89.649 174.867 88.9156 173.2C88.249 171.867 87.6823 171.2 87.2156 171.2C86.8823 171.2 86.5823 171.333 86.3156 171.6C86.3156 171.667 86.349 171.4 86.4156 170.8C86.4823 170.6 86.3156 170.433 85.9156 170.3C85.449 170.9 84.7823 171.933 83.9156 173.4C83.3823 173.733 82.9823 173.767 82.7156 173.5L81.7156 174.4C81.649 174.067 81.3823 173.8 80.9156 173.6C80.1156 173.267 79.649 173.067 79.5156 173C79.049 173.533 78.8156 174 78.8156 174.4C78.949 174.4 79.1156 174.433 79.3156 174.5C79.5823 174.567 79.8156 174.6 80.0156 174.6C79.2156 174.6 78.2156 174.9 77.0156 175.5C77.149 175.567 77.5156 175.867 78.1156 176.4C78.7156 176.867 79.1823 177.1 79.5156 177.1C79.9156 177.1 80.3156 176.967 80.7156 176.7C81.1156 176.367 81.5156 176.2 81.9156 176.2H84.4156C84.4823 176.067 84.2823 175.867 83.8156 175.6C83.349 175.267 83.049 175.067 82.9156 175C83.049 175 83.249 175.133 83.5156 175.4C83.7823 175.6 84.1156 175.7 84.5156 175.7C84.9823 175.7 85.1823 175.633 85.1156 175.5C84.9823 174.833 84.9156 174.6 84.9156 174.8C85.049 175.533 85.449 176.367 86.1156 177.3C86.049 177.767 85.6823 178 85.0156 178C83.6156 178 82.6823 177.533 82.2156 176.6C81.949 176.933 81.6823 177.233 81.4156 177.5L79.7156 177.9C80.9156 179.167 81.849 179.8 82.5156 179.8C82.849 179.8 83.0156 179.733 83.0156 179.6C83.0823 179.467 83.2823 179.4 83.6156 179.4C83.949 179.4 84.4156 179.7 85.0156 180.3C85.2156 180.1 85.3156 179.667 85.3156 179C86.7156 179.067 87.6823 178.6 88.2156 177.6C88.2156 177.733 88.149 178.067 88.0156 178.6C87.949 178.933 87.9823 179.2 88.1156 179.4C89.3156 178 90.1156 177.1 90.5156 176.7V178.5C90.5156 178.3 90.349 178 90.0156 177.6C89.8156 177.733 89.7156 178.067 89.7156 178.6L90.5156 179.4C91.3156 179.133 92.549 178.533 94.2156 177.6L93.4156 178.7C93.549 178.767 93.6823 178.8 93.8156 178.8C93.949 178.8 94.149 178.667 94.4156 178.4C94.749 178.133 95.1156 178 95.5156 178C95.9823 178 96.2156 177.433 96.2156 176.3H98.8156C98.8156 177.167 99.049 177.6 99.5156 177.6C99.9156 177.6 100.082 177.533 100.016 177.4C99.949 177.2 100.082 177.1 100.416 177.1C100.816 177.1 101.082 177.333 101.216 177.8C101.416 178.267 101.682 178.5 102.016 178.5C102.482 178.5 102.749 178.433 102.816 178.3C102.949 178.1 103.016 178 103.016 178L104.016 178.9C104.282 178.567 104.416 178.267 104.416 178C104.616 178.2 104.782 178.533 104.916 179C105.116 179.4 105.282 179.667 105.416 179.8C105.949 178.867 105.916 177.833 105.316 176.7C106.316 177.9 107.482 178.367 108.816 178.1C108.816 178.7 108.982 179.167 109.316 179.5C109.316 179.633 109.116 179.833 108.716 180.1C108.382 180.3 108.116 180.567 107.916 180.9C108.582 181.033 109.516 181.333 110.716 181.8C108.249 181.8 107.016 182.433 107.016 183.7L111.616 240ZM123.216 178.9C123.216 178.433 123.216 177.767 123.216 176.9C123.216 175.967 123.216 175.367 123.216 175.1C123.216 175.167 123.016 175.233 122.616 175.3C122.216 175.3 122.016 175.533 122.016 176C122.016 176.533 122.416 177.5 123.216 178.9ZM108.416 168.7C107.616 168.367 107.116 167.667 106.916 166.6C107.249 167.4 107.182 168.033 106.716 168.5C106.182 168.5 105.849 168.633 105.716 168.9C105.649 169.1 105.649 169.433 105.716 169.9C105.782 170.3 105.782 170.533 105.716 170.6C105.849 170.533 106.282 170.167 107.016 169.5C107.549 168.967 108.016 168.7 108.416 168.7ZM116.116 179.1C116.116 178.833 115.916 178.6 115.516 178.4C114.649 178 113.716 178.333 112.716 179.4C112.449 179.067 112.282 178.833 112.216 178.7C112.416 179.033 112.482 179.6 112.416 180.4C112.282 181.533 112.216 182.1 112.216 182.1C112.349 181.967 112.516 181.667 112.716 181.2C112.916 180.733 113.082 180.433 113.216 180.3C113.816 180.233 114.549 180.3 115.416 180.5C115.349 180.433 115.316 180.367 115.316 180.3C115.316 180.167 115.449 179.967 115.716 179.7C115.982 179.433 116.116 179.233 116.116 179.1ZM111.416 180.7C111.416 180.367 111.349 179.867 111.216 179.2C111.082 178.533 111.016 178.133 111.016 178C110.149 178.867 109.749 179.6 109.816 180.2C110.549 180.2 111.082 180.367 111.416 180.7ZM108.016 177.1L106.216 176.5V177.2L107.716 177.7L108.016 177.1ZM100.616 171.8V171H98.9156V171.8H100.616ZM107.616 181.1L107.116 179H106.416L106.916 181.1H107.616ZM89.0156 164.8V163.5H88.2156V164.8H89.0156ZM102.016 179.6C101.749 179.467 100.849 179.4 99.3156 179.4C98.9156 179.4 98.549 179.167 98.2156 178.7C97.949 178.233 97.6156 178 97.2156 178C96.8156 178 96.449 178.133 96.1156 178.4C95.7823 178.6 95.549 178.7 95.4156 178.7C96.0156 178.7 96.749 178.967 97.6156 179.5C98.549 180.033 99.1823 180.3 99.5156 180.3C100.716 180.3 101.549 180.067 102.016 179.6ZM79.6156 160.7L79.0156 160.3C79.0156 160.567 78.8156 161 78.4156 161.6C78.6823 161.6 79.0156 161.467 79.4156 161.2C79.8156 160.867 79.8823 160.7 79.6156 160.7ZM89.7156 172C89.1823 170.933 88.5823 170.4 87.9156 170.4C88.9823 171.467 89.5823 172 89.7156 172ZM96.5156 180.6C95.9823 180.133 95.2823 179.567 94.4156 178.9V179.9C95.0156 180.367 95.7156 180.6 96.5156 180.6ZM89.0156 176.1L88.4156 174.8L87.8156 175L88.3156 176.1H89.0156ZM93.1156 179.6L92.4156 179.3L91.6156 181L92.3156 181.2L93.1156 179.6ZM82.5156 169.8L81.3156 169.2L81.1156 169.9L82.2156 170.4L82.5156 169.8ZM91.7156 179.7L91.2156 179.3L90.1156 180.4L90.5156 180.8L91.7156 179.7ZM83.8156 181.3V180.6L81.6156 181.1V181.8L83.8156 181.3ZM79.4156 178.4L78.9156 177.1L78.2156 177.3L78.8156 178.4H79.4156ZM76.3156 176.9C76.049 176.9 75.949 176.533 76.0156 175.8C75.8823 175.8 75.649 176 75.3156 176.4C74.9823 176.733 74.7156 176.9 74.5156 176.9H76.3156ZM80.1156 181.6C80.1156 180.733 79.9156 180.3 79.5156 180.3C79.249 180.3 78.8823 180.533 78.4156 181C79.149 181 79.7156 181.2 80.1156 181.6ZM96.2156 199.4L95.9156 198.8L94.8156 199.3V200L96.2156 199.4ZM70.1156 181.3V180.6H68.0156V181.3H70.1156ZM221.503 233C218.236 235.733 214.236 238.2 209.503 240.4C205.236 242.267 200.97 244.1 196.703 245.9C196.303 245.567 195.936 245.4 195.603 245.4C195.603 244.933 195.436 244.2 195.103 243.2C194.77 242.267 194.57 241.6 194.503 241.2C194.303 239.667 194.503 237.367 195.103 234.3C195.103 234.167 194.836 233.733 194.303 233C194.103 229.867 193.936 226.333 193.803 222.4V218.8C194.47 218.333 196.736 217.533 200.603 216.4C203.27 215.6 204.603 214.5 204.603 213.1C204.603 212.7 204.503 212.233 204.303 211.7L203.303 211H204.803C205.003 210.733 205.103 210.333 205.103 209.8C205.103 209.4 204.803 208.4 204.203 206.8C203.67 205.133 203.236 204.133 202.903 203.8C202.903 203.467 203.336 202.833 204.203 201.9C203.936 201.7 203.67 201.6 203.403 201.6C203.403 201.333 203.603 200.233 204.003 198.3C204.47 196.367 204.703 195.2 204.703 194.8C204.703 194.8 204.503 194.5 204.103 193.9C203.703 193.3 203.503 192.467 203.503 191.4C203.503 190.667 203.603 189.867 203.803 189C202.47 188.067 201.17 187.6 199.903 187.6C199.303 186.733 197.703 185.633 195.103 184.3C191.636 182.567 189.67 181.567 189.203 181.3C189.203 180.967 189.27 180.467 189.403 179.8C189.603 179.133 189.736 178.667 189.803 178.4C189.336 176.6 189.036 174.1 188.903 170.9C188.703 166.567 188.536 163.933 188.403 163C188.403 162.867 188.67 160.067 189.203 154.6H192.103C194.236 154.533 197.336 155.533 201.403 157.6C201.736 157.8 202.77 158.167 204.503 158.7C205.17 158.9 205.636 159.5 205.903 160.5C206.036 160.3 206.236 160.133 206.503 160C206.836 159.867 207.07 159.733 207.203 159.6C207.803 161.467 210.203 163.933 214.403 167C214.936 167.733 215.703 168.633 216.703 169.7C216.636 170.9 216.77 172.667 217.103 175C217.436 177.8 217.636 179.7 217.703 180.7C217.703 182.9 217.87 186.3 218.203 190.9C218.47 195.1 218.603 198.133 218.603 200C218.603 201.8 218.503 203.333 218.303 204.6C218.303 206.333 218.536 207.567 219.003 208.3C219.403 210.633 219.403 212.2 219.003 213C219.87 216.467 220.303 219.7 220.303 222.7C220.303 224.3 220.136 225.433 219.803 226.1C220.07 226.433 220.37 226.9 220.703 227.5C220.57 228.633 220.836 230.467 221.503 233ZM152.003 158.6L151.703 159.3L150.503 158.7L150.803 158L152.003 158.6ZM180.103 237.7C180.103 239.3 179.77 242.033 179.103 245.9C178.836 245.833 178.37 246.033 177.703 246.5C177.036 247.033 176.57 247.3 176.303 247.3C175.903 247.3 175.503 247.2 175.103 247C174.77 246.867 174.403 246.8 174.003 246.8H172.803C172.27 246.8 171.77 246.533 171.303 246C170.836 245.467 170.603 244.967 170.603 244.5C170.203 244.433 169.703 244.567 169.103 244.9C168.503 245.3 168.003 245.5 167.603 245.5C166.803 245.5 164.07 243.833 159.403 240.5C158.936 240.5 158.736 240.567 158.803 240.7C159.003 241.233 159.103 241.433 159.103 241.3C158.236 240.5 156.603 238.767 154.203 236.1C151.87 233.5 150.07 231.533 148.803 230.2C148.936 230.067 149.17 229.767 149.503 229.3C149.036 224.3 148.87 221 149.003 219.4C148.936 218.933 148.736 218.333 148.403 217.6C148.403 217.267 148.47 216.733 148.603 216C148.87 215 149.003 214.267 149.003 213.8C149.27 211.267 148.836 207.333 147.703 202C147.703 201.933 147.836 201.767 148.103 201.5C148.37 201.233 148.603 201.033 148.803 200.9C148.803 200.3 148.536 200.233 148.003 200.7C147.87 199.9 147.903 197.967 148.103 194.9C148.303 191.833 148.303 189.833 148.103 188.9C148.036 187.233 147.736 184.633 147.203 181.1C147.536 180.3 147.703 179.867 147.703 179.8C147.57 178.733 147.203 177.1 146.603 174.9C147.136 174.1 147.436 173.167 147.503 172.1C146.903 171.567 146.736 170.6 147.003 169.2C147.736 168.933 148.87 168.133 150.403 166.8C152.003 165.467 153.17 164.633 153.903 164.3C157.836 162.3 164.436 159.967 173.703 157.3C174.37 164.7 174.703 170.067 174.703 173.4C174.703 173.467 174.603 175.4 174.403 179.2C174.27 183 174.203 185.833 174.203 187.7C172.603 188.167 170.303 188.7 167.303 189.3C165.77 190.367 164.803 191.567 164.403 192.9C164.27 193.367 164.203 194.533 164.203 196.4C164.203 196.6 164.37 199.033 164.703 203.7C164.97 208.567 165.136 211.767 165.203 213.3C166.003 213.767 167.136 214.8 168.603 216.4C170.07 217.933 171.136 218.967 171.803 219.5C173.203 220.433 175.803 221.833 179.603 223.7C179.603 224.367 179.37 225.033 178.903 225.7C179.703 228.767 180.103 232.767 180.103 237.7ZM205.303 166.8C205.77 166 205.636 165.267 204.903 164.6C204.303 164.867 203.436 165 202.303 165L201.303 164.1C200.503 164.833 199.803 165.2 199.203 165.2C201.07 165.667 202.936 165.9 204.803 165.9C205.07 166.167 205.236 166.467 205.303 166.8ZM200.703 164.2L200.003 163.5L199.503 164L200.203 164.7L200.703 164.2ZM206.303 184.1C206.303 183.567 205.97 182.967 205.303 182.3L204.703 184C205.77 184 206.303 184.033 206.303 184.1ZM209.603 209C209.603 208.667 209.203 208.1 208.403 207.3C208.403 208.633 208.37 209.333 208.303 209.4C208.57 209.4 209.003 209.267 209.603 209ZM162.503 174.9V173.7H161.803V174.9H162.503Z" fill="black"/>
</svg>
